/* XPM */
static char * MaxelerIcon_xpm[] = {
"64 64 89 1",
" 	c #FFFFFF",
".	c #E3E3E3",
"+	c #D3D3D3",
"@	c #F1F1F1",
"#	c #BEBEBE",
"$	c #A6A6A6",
"%	c #A9A9A9",
"&	c #F7F7F7",
"*	c #FAFAFA",
"=	c #CECECE",
"-	c #A8A8A8",
";	c #D2D2D2",
">	c #FEFEFE",
",	c #DEDEDE",
"'	c #AEAEAE",
")	c #ADADAD",
"!	c #FCFCFC",
"~	c #ECECEC",
"{	c #BABABA",
"]	c #B5B5B5",
"^	c #D7D7D7",
"/	c #FBFBFB",
"(	c #E0E0E0",
"_	c #A7A7A7",
":	c #ABABAB",
"<	c #C9C9C9",
"[	c #EBEBEB",
"}	c #BFBFBF",
"|	c #B8B8B8",
"1	c #C1C1C1",
"2	c #F2F2F2",
"3	c #E2E2E2",
"4	c #D0D0D0",
"5	c #ACACAC",
"6	c #BCBCBC",
"7	c #BBBBBB",
"8	c #E9E9E9",
"9	c #E5E5E5",
"0	c #F5F5F5",
"a	c #C4C4C4",
"b	c #F6F6F6",
"c	c #C5C5C5",
"d	c #C3C3C3",
"e	c #E6E6E6",
"f	c #AAAAAA",
"g	c #B4B4B4",
"h	c #FDFDFD",
"i	c #B3B3B3",
"j	c #B2B2B2",
"k	c #E7E7E7",
"l	c #CCCCCC",
"m	c #EEEEEE",
"n	c #F0F0F0",
"o	c #EDEDED",
"p	c #DCDCDC",
"q	c #F3F3F3",
"r	c #B6B6B6",
"s	c #C7C7C7",
"t	c #CFCFCF",
"u	c #CBCBCB",
"v	c #F9F9F9",
"w	c #C6C6C6",
"x	c #BDBDBD",
"y	c #B0B0B0",
"z	c #DFDFDF",
"A	c #CACACA",
"B	c #A4A4A4",
"C	c #F8F8F8",
"D	c #B1B1B1",
"E	c #DADADA",
"F	c #898989",
"G	c #333333",
"H	c #606060",
"I	c #AFAFAF",
"J	c #DDDDDD",
"K	c #EFEFEF",
"L	c #D1D1D1",
"M	c #CDCDCD",
"N	c #EAEAEA",
"O	c #C8C8C8",
"P	c #E4E4E4",
"Q	c #545454",
"R	c #D8D8D8",
"S	c #959595",
"T	c #D6D6D6",
"U	c #E8E8E8",
"V	c #E1E1E1",
"W	c #989898",
"X	c #D4D4D4",
"                                              .+                ",
"                                            @#$%&               ",
"                                          *=-$$$;               ",
"                                        >,'$$$$$)!              ",
"                                      *~{$$$$$$]^/              ",
"                                     (_$$$$$:<~                 ",
"                       [=}|]12     345$$$$6,/                   ",
"                     27$$$$$$:8   ($$$$$$9                      ",
"                    2)$$$$$$$$1 0a$$$$$$$b                      ",
"                    c$$$$$$$$$def$g$$$$$_h                      ",
"                    i$$$$$$$$$jklm ]$$$$$n                      ",
"                   /_$$$$$$$$$$fo  p$$$$$p                      ",
"                   q$$$$$$$$$$$$2  >r$$$$4                      ",
"                   h-$$$$$$$$$$$l   s$$$$t                      ",
"                    r$$$$$$$$$$${   u$$$$l                      ",
"                    t$$$$$$$$$$$fv  w$$$$c                      ",
"                    *g$$$$$$$$$$7* !5$$$$x                      ",
"                     0]$$$$$$$y+h  z$$$$$s                      ",
"                ABBB| hk7$$$$fC >~+D$$$$$E            >         ",
"                FGGGH   c$$$$:[lI$$$$$$$$J                      ",
"                FGGGH  z$$$$$$$$$$$$$$$$-K                      ",
"                FGGGH >j$$$$$$$$$$$$$$$rK                       ",
"                FGGGH [$$$$$$$$$$$$$$$y/                        ",
"                FGGGH J$$$$$$$$$$$$$$yK                         ",
"                FGGGH L$$$$$$$$$$$$_M*                          ",
"                FGGGH u$$$$$$$$$$$_e                            ",
"                FGGGH s$$$$$$$$$$$$!                            ",
"                FGGGH w$$$$$$$$$$$$&                            ",
"                FGGGH <$$$$$$$$$$$$m                            ",
"                FGGGH ;$$$$$$$$$$$$E                            ",
"                FGGGH E$$$$$$$$$$$$<                            ",
"                FGGGH 3$$$$$$$$$$$$7                            ",
"                FGGGH N$$$$$$$$$$$$y                            ",
"                FGGGH q$$$$$$$$$$$$%>                           ",
"                FGGGH C$$$$$$$$$$$$$0                           ",
"                FGGGH !_$$$$$$$$$$$$(                           ",
"                FGGGH >-$$$$$$$$$$$$$jA,@/*>                    ",
"                FGGGH !$$$$$$$$$$$$$$$$$$$$%x8                  ",
"                FGGGH /$$$$$$$$$$$$$$$$$$$$$$_.                 ",
"                FGGGH !_$$$$$$$$$$$$$$$$$$$$$$:*                ",
"                FGGGH  j$$$$$$$$$$$$$$$$$$$$$$$o                ",
"                FGGGH  ,$$$$$$$$$$$$$$$$$$$$$$$n                ",
"                FGGGH   4$$$$$$$$$$$$$$$$$$$$$fh                ",
"                FGGGH    E-$$$$$$$$$$$$$$$$$$$O                 ",
"                FGGGH     85$$$$$$$$$$$$$$$$$$E                 ",
"                FGGGH      2#%$$%]66|)$$$$$$$$P                 ",
"                FGGGQAAAAAAAAAc}OAA. R$$$$$$$$8                 ",
"                FGGGGGGGGGGGGGGGGGGS T$$$$$$$$U                 ",
"                FGGGGGGGGGGGGGGGGGGS +$$$$$$$$e                 ",
"                FGGGGGGGGGGGGGGGGGGS =$$$$$$$$V                 ",
"                dWWWWWWWWWWWWWWWWWWA s$$$$$$$$R                 ",
"                                     {$$$$$$$$t                 ",
"                                    0_$$$$$$$$<                 ",
"                                    X$$$$$$$$$O                 ",
"                                    7$$$$$$$$$i>                ",
"                                    r$$$$$$$$$$[                ",
"                                    )$$$$$$$$$$d*0h             ",
"                                   /$$$$$$$$$$$$$$I2            ",
"                                   K$$$$$$$$$$$$$$$6            ",
"                                   V$$$$$$$$$$$$$$'P            ",
"                                   +$$$$$$$$$$$$$I>             ",
"                                   l%%%%%%%%%%%yum              ",
"                                                                ",
"                                                                "};
